<?xml version="1.0" standalone="no"?>
<!DOCTYPE svg PUBLIC "-//W3C//DTD SVG 20010904//EN"
 "http://www.w3.org/TR/2001/REC-SVG-20010904/DTD/svg10.dtd">
<svg version="1.0" xmlns="http://www.w3.org/2000/svg"
 width="506.000000pt" height="506.000000pt" viewBox="0 0 506.000000 506.000000"
 preserveAspectRatio="xMidYMid meet">
<metadata>
Created by potrace 1.14, written by Peter Selinger 2001-2017
</metadata>
<g transform="translate(0.000000,506.000000) scale(0.100000,-0.100000)"
fill="#000000" stroke="none">
<path d="M1565 4874 c-11 -3 -30 -7 -42 -9 -57 -13 -122 -104 -123 -172 l0
-33 -170 0 -170 0 0 28 c-1 62 -62 148 -123 171 -43 17 -128 13 -166 -7 -54
-27 -93 -83 -99 -142 l-5 -50 -57 0 c-145 0 -259 -47 -359 -147 -76 -77 -123
-162 -140 -257 -15 -79 -15 -3469 -1 -3547 41 -220 235 -425 474 -498 l68 -21
1887 0 c2092 0 1933 -5 2081 67 55 27 95 56 150 112 103 104 102 103 157 231
l28 65 3 1330 c2 1202 1 1336 -14 1395 -47 188 -191 334 -377 381 l-47 11 0
232 c0 252 -7 295 -56 387 -49 90 -117 155 -208 199 -44 21 -108 43 -140 49
-36 7 -213 11 -438 11 l-378 0 0 32 c0 53 -38 117 -88 149 -38 24 -57 29 -109
29 -70 0 -104 -13 -144 -57 -34 -36 -49 -66 -49 -97 0 -57 3 -56 -195 -56
l-182 0 -5 45 c-12 102 -115 184 -215 169 -57 -8 -90 -23 -120 -56 -29 -30
-53 -89 -53 -128 l0 -30 -174 0 -173 0 -7 48 c-7 53 -55 121 -105 146 -31 17
-88 26 -116 20z"/>
</g>
</svg>
